<?xml version="1.0" encoding="UTF-8"?>
<svg version="1.1" xmlns="http://www.w3.org/2000/svg" width="512" height="512">
<path d="M0 0 C1.2375 0.45133301 2.475 0.90266602 3.75 1.36767578 C11.00269171 4.0578404 18.07319289 6.99679627 25.0625 10.3125 C25.0625 12.2925 25.0625 14.2725 25.0625 16.3125 C21.21707367 17.66544201 17.90144603 17.08981131 13.91015625 16.5703125 C13.21417831 16.48248505 12.51820038 16.39465759 11.8011322 16.3041687 C9.57480113 16.02222323 7.34990284 15.73048536 5.125 15.4375 C-9.97603297 13.4789357 -24.86188594 12.1255544 -40.1027832 12.12719727 C-42.36884234 12.12500595 -44.63441657 12.10675129 -46.90039062 12.08789062 C-48.39062339 12.08495562 -49.88085839 12.08297154 -51.37109375 12.08203125 C-52.68134521 12.07792236 -53.99159668 12.07381348 -55.34155273 12.06958008 C-66.71177654 12.44854145 -77.76640837 15.02858961 -88.73828125 17.84765625 C-89.41839075 18.02004381 -90.09850025 18.19243137 -90.79921913 18.3700428 C-106.30556433 22.30110976 -121.68022758 26.67885991 -137.03948975 31.14489746 C-139.82538896 31.95321508 -142.61313061 32.75506993 -145.40089226 33.55693626 C-160.76520502 37.97844868 -176.08116426 42.52717925 -191.32939148 47.33531189 C-214.43957401 54.6038515 -214.43957401 54.6038515 -222.9375 53.3125 C-225.93947464 51.51131522 -227.38916366 50.40917268 -228.9375 47.3125 C-229.94330237 37.96348448 -228.10679205 29.1317393 -222.4375 21.5 C-214.30186067 13.25762488 -201.4496923 10.14324889 -190.6875 6.625 C-189.91860443 6.37126617 -189.14970886 6.11753235 -188.35751343 5.85610962 C-120.08864994 -16.6107667 -68.79275501 -25.12183848 0 0 Z " fill="#505050" transform="translate(357.9375,351.6875)"/>
<path d="M0 0 C0.71220703 0.24717773 1.42441406 0.49435547 2.15820312 0.74902344 C25.00748468 8.77057973 46.65234416 20.97343812 67 34 C67.68344482 34.4370929 68.36688965 34.87418579 69.07104492 35.32452393 C73.95903242 38.45591551 78.82834914 41.61454721 83.68264771 44.7979126 C85.3466834 45.8871313 87.01372828 46.97176715 88.68380737 48.05169678 C91.04294982 49.58067951 93.38800618 51.12921398 95.73046875 52.68359375 C96.80865875 53.37522362 96.80865875 53.37522362 97.90863037 54.08082581 C102.73051456 57.32406151 102.73051456 57.32406151 104.0793457 60.70727539 C104 63 104 63 102 65 C98.11932435 64.65854961 95.3665953 63.25995867 92.0703125 61.26171875 C91.12188477 60.69469238 90.17345703 60.12766602 89.19628906 59.54345703 C88.18276367 58.93099121 87.16923828 58.31852539 86.125 57.6875 C51.97039701 37.45331212 14.12912791 16.26717677 -26.625 25.8125 C-27.29341919 25.9644986 -27.96183838 26.11649719 -28.6505127 26.27310181 C-53.28296266 31.87801514 -77.45231224 39.36565805 -101.4375 47.25 C-102.53632507 47.60739761 -102.53632507 47.60739761 -103.65734863 47.97201538 C-112.61412132 50.89857227 -121.08578458 54.26124961 -129.51977539 58.47558594 C-136.13434416 61.3729109 -141.92143818 62.74062996 -149 61 C-152.26902881 58.37056378 -154.43216393 55.876831 -156 52 C-156.46279777 43.06800299 -153.18282096 35.1172579 -147.41503906 28.42333984 C-128.37647343 9.27309181 -85.55518687 2.89075146 -60 -2 C-58.75992188 -2.2475 -57.51984375 -2.495 -56.2421875 -2.75 C-38.17640302 -5.76795008 -17.3296593 -6.3693945 0 0 Z " fill="#232322" transform="translate(282,193)"/>
<path d="M0 0 C1.15653076 0.56895996 1.15653076 0.56895996 2.33642578 1.14941406 C23.47784768 11.66094832 50.97360944 25.34774373 67 43 C67.8046875 45.65625 67.8046875 45.65625 68 48 C67 49 67 49 64.28515625 49.2734375 C60.35842186 48.94659873 58.66727593 47.848492 55.4375 45.625 C30.79877304 29.53096745 -1.61565876 17.1140082 -31.3828125 22.9609375 C-64.21619769 30.29732452 -96.96171005 43.1342685 -127.52685547 57.04101562 C-128.24892685 57.36753113 -128.97099823 57.69404663 -129.71495056 58.03045654 C-131.06408104 58.64515559 -132.40888004 59.26949741 -133.74806213 59.90557861 C-137.65404717 61.68744209 -140.71141908 62.41190892 -145 62 C-145.33 61.67 -145.66 61.34 -146 61 C-145.56064837 53.97746023 -143.95971327 47.63776056 -141.875 40.9375 C-141.5658667 39.93468994 -141.2567334 38.93187988 -140.93823242 37.89868164 C-137.6089227 27.36526758 -133.933234 15.75588461 -127 7 C-124.41760361 5.70991124 -122.22512966 4.80567834 -119.5078125 3.96484375 C-118.77361588 3.72019882 -118.03941925 3.47555389 -117.28297424 3.22349548 C-114.90370802 2.43873412 -112.51566042 1.6867629 -110.125 0.9375 C-108.48134778 0.40761844 -106.83787504 -0.12282014 -105.19458008 -0.65380859 C-93.27721691 -4.46254855 -81.32946086 -7.80864164 -69 -10 C-68.32356445 -10.12552246 -67.64712891 -10.25104492 -66.95019531 -10.38037109 C-42.49542881 -14.78813067 -22.01026552 -10.88179336 0 0 Z " fill="#232323" transform="translate(315,260)"/>
<path d="M0 0 C2.625 -0.375 2.625 -0.375 5 0 C5.33 0.33 5.66 0.66 6 1 C5.59344223 6.2910412 4.17624856 10.29138805 1.83984375 15.02734375 C1.53051407 15.66112442 1.22118439 16.29490509 0.90248108 16.94789124 C-0.07678652 18.9490315 -1.06934043 20.94322401 -2.0625 22.9375 C-2.73331527 24.30229562 -3.40324594 25.66752642 -4.07226562 27.03320312 C-5.70465137 30.36055933 -7.34901147 33.68182744 -9 37 C-5.26454137 33.65098643 -2.97389127 29.93404767 -0.48828125 25.64453125 C-0.07458786 24.94228928 0.33910553 24.2400473 0.76533508 23.51652527 C2.07847251 21.28516765 3.38328745 19.04908373 4.6875 16.8125 C6.00400031 14.56616885 7.32219626 12.32084912 8.64179993 10.07633972 C9.46084364 8.6820269 10.27778829 7.28647856 11.092453 5.88960266 C13.89040788 1.10959212 13.89040788 1.10959212 15 0 C16.66617115 -0.04063832 18.33388095 -0.042721 20 0 C21.11083984 1.75683594 21.11083984 1.75683594 22 4 C21.40087891 5.92285156 21.40087891 5.92285156 20.2265625 7.890625 C19.8140625 8.59960938 19.4015625 9.30859375 18.9765625 10.0390625 C18.30753906 11.13347656 18.30753906 11.13347656 17.625 12.25 C17.18671875 12.99507812 16.7484375 13.74015625 16.296875 14.5078125 C15.21220164 16.34704125 14.10792483 18.17468324 13 20 C14.29147025 20.11330787 14.29147025 20.11330787 15.8203125 18.3125 C20.2071844 13.91075735 24.4616134 9.45810601 28.4921875 4.7265625 C32.58542891 0.03948296 32.58542891 0.03948296 35.625 -0.25 C38 0 38 0 39 1 C39.31640625 3.29296875 39.31640625 3.29296875 39 6 C37.27734375 8.17578125 37.27734375 8.17578125 34.9375 10.3125 C31.94971094 13.13222593 29.09937983 15.9323265 26.4375 19.0625 C23.33926043 22.68315936 20.02253776 26.02062943 16.6015625 29.3359375 C14.91371276 30.92422733 14.91371276 30.92422733 14 33 C22.04124676 30.8730809 26.46640043 26.15462564 32.125 20.25 C32.99253906 19.36828125 33.86007812 18.4865625 34.75390625 17.578125 C38.45150751 13.79610362 42.06134382 9.99205197 45.4453125 5.92578125 C48 3 48 3 50.75 1.9375 C53 2 53 2 55 4 C54.70993997 7.96037268 53.51623098 9.99681805 50.796875 12.8125 C49.82041016 13.83730469 49.82041016 13.83730469 48.82421875 14.8828125 C48.13972656 15.58148438 47.45523438 16.28015625 46.75 17 C46.08097656 17.69867188 45.41195312 18.39734375 44.72265625 19.1171875 C41.19445603 22.79095198 37.6156281 26.41240002 34 30 C37.21234624 30.59322073 38.88844945 30.7981394 42 30 C45.82851677 27.10062397 48.96122345 23.60635187 52.1875 20.0625 C53.9216567 18.19052952 55.66480415 16.32683716 57.41796875 14.47265625 C58.17875732 13.64000244 58.9395459 12.80734863 59.72338867 11.94946289 C62.24183412 9.79291737 63.70202376 9.1346183 67 9 C67.99 9.99 67.99 9.99 69 11 C68.7227312 15.04415759 67.49059366 16.99648512 64.62109375 19.76953125 C63.94755859 20.43017578 63.27402344 21.09082031 62.58007812 21.77148438 C61.87302734 22.44501953 61.16597656 23.11855469 60.4375 23.8125 C59.72658203 24.50537109 59.01566406 25.19824219 58.28320312 25.91210938 C56.53081688 27.6174517 54.76978531 29.31275176 53 31 C59.12093738 32.4887104 59.12093738 32.4887104 64.94726562 30.87988281 C66.68789726 29.21390811 68.22666968 27.4915617 69.75 25.625 C75.18810596 19.23823182 75.18810596 19.23823182 79.328125 18.0234375 C80.65070313 18.01183594 80.65070313 18.01183594 82 18 C83 19 83 19 83.375 21.23046875 C82.83760974 25.19931973 80.88166146 26.61094238 78 29.3125 C77.071875 30.19550781 76.14375 31.07851562 75.1875 31.98828125 C74.465625 32.65214844 73.74375 33.31601563 73 34 C77.1357145 34.98640644 79.18223906 35.4679109 82.94921875 33.3125 C84.30466797 32.1678125 84.30466797 32.1678125 85.6875 31 C88.44921875 28.6875 88.44921875 28.6875 91 27 C93.33203125 27.25 93.33203125 27.25 95 28 C95.8125 30.1875 95.8125 30.1875 96 33 C93.5625 35.8125 93.5625 35.8125 91 38 C94.1601096 39.05336987 96.21023213 39.37783368 99.26171875 37.91796875 C100.81153981 36.98807611 102.34285747 36.02646595 103.8515625 35.03125 C106 34 106 34 108.2734375 34.34375 C108.84320313 34.5603125 109.41296875 34.776875 110 35 C110 37.66666667 110 40.33333333 110 43 C110.61488281 42.83242187 111.22976563 42.66484375 111.86328125 42.4921875 C112.67152344 42.28851563 113.47976563 42.08484375 114.3125 41.875 C115.11300781 41.66617188 115.91351563 41.45734375 116.73828125 41.2421875 C119 41 119 41 122 43 C122.0825 43.639375 122.165 44.27875 122.25 44.9375 C122.4975 45.618125 122.745 46.29875 123 47 C124.155 47.495 125.31 47.99 126.5 48.5 C130 50 130 50 131.125 52 C130.96012625 54.63797995 129.88950168 55.25888851 128 57 C122.40956017 55.49214251 116.82801351 53.96012454 111.265625 52.3515625 C61.84719632 38.11055295 21.95987749 37.12475142 -28 50 C-28.67893311 50.17488953 -29.35786621 50.34977905 -30.05737305 50.52996826 C-51.34339902 56.04088325 -72.26380895 62.51246828 -93.1003418 69.52954102 C-93.99017761 69.82646347 -94.88001343 70.12338593 -95.79681396 70.42930603 C-97.46562625 70.98665499 -99.13240755 71.55013733 -100.79669189 72.12086487 C-108.10402448 74.5548167 -108.10402448 74.5548167 -112 74 C-119.48241938 66.8168774 -121.36587641 53.45467179 -123.03125 43.609375 C-123 41 -123 41 -121.53125 39.140625 C-121.0259375 38.76421875 -120.520625 38.3878125 -120 38 C-117.61328125 38.5234375 -117.61328125 38.5234375 -115 40 C-114.12002605 42.67295841 -113.5847332 44.88231985 -113.1875 47.625 C-113.06697266 48.33140625 -112.94644531 49.0378125 -112.82226562 49.765625 C-112.52809036 51.50714256 -112.26137374 53.25325839 -112 55 C-111.88930176 54.32420898 -111.77860352 53.64841797 -111.66455078 52.95214844 C-111.15804847 49.88361938 -110.64163587 46.81683846 -110.125 43.75 C-109.95097656 42.68652344 -109.77695313 41.62304688 -109.59765625 40.52734375 C-109.33662109 38.99013672 -109.33662109 38.99013672 -109.0703125 37.421875 C-108.91320801 36.47924805 -108.75610352 35.53662109 -108.59423828 34.56542969 C-108.02433122 32.10504208 -107.23194322 30.19312968 -106 28 C-104.33388095 27.957279 -102.66617115 27.95936168 -101 28 C-100.67 28.33 -100.34 28.66 -100 29 C-100.08419122 40.68153217 -102.34889197 52.46398935 -104 64 C-103.34 64 -102.68 64 -102 64 C-101.77570313 62.71351563 -101.55140625 61.42703125 -101.3203125 60.1015625 C-99.71012248 52.0506124 -97.22700124 44.23300832 -94.875 36.375 C-94.40193833 34.78267247 -93.92927883 33.19022541 -93.45703125 31.59765625 C-92.30931899 27.73037722 -91.15617806 23.86475609 -90 20 C-88.00045254 19.95745644 -85.99958364 19.95919217 -84 20 C-83.67 20.33 -83.34 20.66 -83 21 C-83.46120561 28.86993403 -85.90770893 36.33554228 -88.0625 43.875 C-88.80674669 46.49646899 -89.54658023 49.11910738 -90.28515625 51.7421875 C-90.61394775 52.8957373 -90.94273926 54.04928711 -91.28149414 55.23779297 C-92.08391427 57.8469103 -92.08391427 57.8469103 -92 60 C-89.525 59.505 -89.525 59.505 -87 59 C-86.84797119 58.39808838 -86.69594238 57.79617676 -86.53930664 57.17602539 C-84.44795442 49.19079525 -81.87113106 41.40759936 -79.18383789 33.6081543 C-78.42882883 31.4122807 -77.6839687 29.21312237 -76.93945312 27.01367188 C-76.45894044 25.61177093 -75.9778426 24.21007038 -75.49609375 22.80859375 C-75.27521591 22.15346298 -75.05433807 21.49833221 -74.82676697 20.823349 C-73.84166182 17.99058522 -73.15024612 16.15024612 -71 14 C-68.375 14.375 -68.375 14.375 -66 15 C-64.58733127 19.46603206 -65.96565727 22.71361132 -67.4921875 26.9765625 C-67.75758331 27.74302094 -68.02297913 28.50947937 -68.29641724 29.29916382 C-69.14606063 31.74468785 -70.01046844 34.18470468 -70.875 36.625 C-71.45016049 38.27571384 -72.02439026 39.92675228 -72.59765625 41.578125 C-76.76044368 53.52088737 -76.76044368 53.52088737 -78 56 C-73.12478916 54.65253877 -73.12478916 54.65253877 -69.74871826 51.11520386 C-68.63582069 48.63924376 -67.68571797 46.14659165 -66.7734375 43.58984375 C-66.24008286 42.2049752 -66.24008286 42.2049752 -65.69595337 40.79212952 C-64.56473148 37.84912699 -63.46714942 34.89520422 -62.375 31.9375 C-61.27332629 28.97735273 -60.1644024 26.02093482 -59.03262329 23.07215881 C-58.32983612 21.23938266 -57.64456222 19.39977373 -56.97885132 17.5532074 C-54.62578277 11.39188612 -54.62578277 11.39188612 -51.37744141 9.35766602 C-49 9 -49 9 -47 10 C-46.67501441 15.52163018 -47.69655521 19.67100112 -49.84375 24.68359375 C-50.13229858 25.38396255 -50.42084717 26.08433136 -50.71813965 26.80592346 C-51.63398173 29.02141132 -52.56662573 31.22934945 -53.5 33.4375 C-54.12742975 34.94679734 -54.7537434 36.45655916 -55.37890625 37.96679688 C-56.90641646 41.65002833 -58.44902615 45.32659079 -60 49 C-57.31003142 49 -55.48988994 48.94423243 -53 48 C-51.89023289 46.39990407 -51.89023289 46.39990407 -51.24829102 44.33813477 C-50.96442032 43.56385635 -50.68054962 42.78957794 -50.38807678 41.99183655 C-50.09630051 41.15019455 -49.80452423 40.30855255 -49.50390625 39.44140625 C-48.85617292 37.67641279 -48.20838476 35.91143946 -47.56054688 34.14648438 C-46.557209 31.35233223 -45.56019722 28.55601937 -44.56616211 25.75854492 C-43.60242541 23.06364716 -42.61659973 20.37759737 -41.62890625 17.69140625 C-41.33915421 16.85178848 -41.04940216 16.01217072 -40.75086975 15.14710999 C-38.60854272 9.34439954 -38.60854272 9.34439954 -35.27319336 7.45678711 C-34.52303955 7.30604736 -33.77288574 7.15530762 -33 7 C-32.01 7.99 -31.02 8.98 -30 10 C-32.09782021 17.53672913 -34.7683905 24.74645518 -37.6875 32 C-38.50697765 34.04043582 -39.32354244 36.08204473 -40.13671875 38.125 C-40.49467529 39.01445312 -40.85263184 39.90390625 -41.22143555 40.8203125 C-42.1121255 42.92814876 -42.1121255 42.92814876 -42 45 C-38.435768 44.06636585 -37.21941241 43.34917504 -35.2265625 40.17773438 C-34.69804687 38.99501953 -34.16953125 37.81230469 -33.625 36.59375 C-33.18728271 35.63474792 -33.18728271 35.63474792 -32.74072266 34.65637207 C-31.8111297 32.61104374 -30.90510428 30.5562657 -30 28.5 C-29.3922191 27.1477199 -28.78285851 25.79614863 -28.171875 24.4453125 C-27.8737793 23.7853125 -27.57568359 23.1253125 -27.26855469 22.4453125 C-26.67573722 21.13398729 -26.08264098 19.82278807 -25.48925781 18.51171875 C-24.18395262 15.62677304 -22.88706723 12.7401263 -21.625 9.8359375 C-21.2125 8.93101563 -20.8 8.02609375 -20.375 7.09375 C-20.03210938 6.31708984 -19.68921875 5.54042969 -19.3359375 4.74023438 C-18 3 -18 3 -15.3515625 2.24414062 C-14.57554687 2.16357422 -13.79953125 2.08300781 -13 2 C-11.84106445 4.09985352 -11.84106445 4.09985352 -11 7 C-11.91870117 10.04272461 -11.91870117 10.04272461 -13.54296875 13.40234375 C-13.82723221 14.00252823 -14.11149567 14.60271271 -14.40437317 15.22108459 C-15.31565683 17.13495285 -16.25101394 19.03585748 -17.1875 20.9375 C-17.79914119 22.21211683 -18.4091847 23.48750164 -19.01757812 24.76367188 C-21.62128751 30.20425798 -24.29634862 35.60844272 -27 41 C-20.76189402 39.34771053 -20.76189402 39.34771053 -16.6706543 34.70947266 C-16.02792204 33.37377788 -15.41357292 32.02415329 -14.82421875 30.6640625 C-14.48751663 29.94769623 -14.15081451 29.23132996 -13.8039093 28.49325562 C-12.73937925 26.21472579 -11.71290388 23.92136438 -10.6875 21.625 C-9.63603767 19.34028158 -8.57712493 17.05912463 -7.51753235 14.77816772 C-6.86316389 13.36209838 -6.21501932 11.94313072 -5.57414246 10.52090454 C-2.27362524 3.22388301 -2.27362524 3.22388301 0 0 Z " fill="#222222" transform="translate(252,107)"/>
<path d="M0 0 C1.2375 0.45133301 2.475 0.90266602 3.75 1.36767578 C11.00269171 4.0578404 18.07319289 6.99679627 25.0625 10.3125 C25.0625 12.2925 25.0625 14.2725 25.0625 16.3125 C21.21707367 17.66544201 17.90144603 17.08981131 13.91015625 16.5703125 C13.21417831 16.48248505 12.51820038 16.39465759 11.8011322 16.3041687 C9.57480113 16.02222323 7.34990284 15.73048536 5.125 15.4375 C-9.97603297 13.4789357 -24.86188594 12.1255544 -40.1027832 12.12719727 C-42.36884234 12.12500595 -44.63441657 12.10675129 -46.90039062 12.08789062 C-48.39062339 12.08495562 -49.88085839 12.08297154 -51.37109375 12.08203125 C-52.68134521 12.07792236 -53.99159668 12.07381348 -55.34155273 12.06958008 C-66.71177654 12.44854145 -77.76640837 15.02858961 -88.73828125 17.84765625 C-89.41839075 18.02004381 -90.09850025 18.19243137 -90.79921913 18.3700428 C-106.30556433 22.30110976 -121.68022758 26.67885991 -137.03948975 31.14489746 C-139.82538896 31.95321508 -142.61313061 32.75506993 -145.40089226 33.55693626 C-160.76520502 37.97844868 -176.08116426 42.52717925 -191.32939148 47.33531189 C-214.43957401 54.6038515 -214.43957401 54.6038515 -222.9375 53.3125 C-225.93947464 51.51131522 -227.38916366 50.40917268 -228.9375 47.3125 C-229.94330237 37.96348448 -228.10679205 29.1317393 -222.4375 21.5 C-214.30186067 13.25762488 -201.4496923 10.14324889 -190.6875 6.625 C-189.91860443 6.37126617 -189.14970886 6.11753235 -188.35751343 5.85610962 C-120.08864994 -16.6107667 -68.79275501 -25.12183848 0 0 Z M-99.78320312 -10.14501953 C-102.03253264 -9.66731741 -104.28698015 -9.23338248 -106.546875 -8.80859375 C-133.20142938 -3.75964752 -159.24660157 3.70923439 -185.00369263 12.15933228 C-186.43546797 12.62854738 -187.8681209 13.09509483 -189.30172729 13.5586853 C-207.87071045 19.06908341 -207.87071045 19.06908341 -220.6875 32.5625 C-222.14252885 36.92758656 -222.44688967 40.74758487 -221.9375 45.3125 C-220.73062366 46.73407312 -220.73062366 46.73407312 -217.203125 46.6328125 C-210.65814282 46.55274366 -204.81795119 44.29869036 -198.6875 42.1875 C-196.16492196 41.34767445 -193.64147688 40.51044888 -191.1171875 39.67578125 C-189.88581055 39.26666504 -188.65443359 38.85754883 -187.38574219 38.43603516 C-182.8901911 36.97125704 -178.36663667 35.64385812 -173.8125 34.375 C-167.53654975 32.62320867 -161.27576232 30.82980438 -155.03125 28.96875 C-139.3885681 24.31109878 -123.74045612 19.85943813 -107.91796875 15.84375 C-101.80652915 14.29176215 -95.73043076 12.62788189 -89.6640625 10.90893555 C-87.75721051 10.36965992 -85.84738475 9.84093443 -83.9375 9.3125 C-83.30255615 9.13428711 -82.6676123 8.95607422 -82.01342773 8.77246094 C-57.76448152 2.28199191 -30.67458676 5.18930901 -5.9375 6.3125 C-8.63447904 3.61552096 -11.70192187 2.94603963 -15.26171875 1.8515625 C-16.00017532 1.6197226 -16.7386319 1.38788269 -17.49946594 1.14901733 C-19.07139312 0.65693237 -20.64427608 0.16789195 -22.21801758 -0.31835938 C-24.57273975 -1.04634327 -26.92425105 -1.78397619 -29.27539062 -2.5234375 C-53.15004121 -9.9910581 -74.84183869 -15.57240095 -99.78320312 -10.14501953 Z " fill="#232323" transform="translate(357.9375,351.6875)"/>
<path d="M0 0 C1.31378452 0.45564588 2.62896649 0.90727672 3.9453125 1.35546875 C13.01042865 4.51884459 21.51425502 8.51846593 30 13 C26.73988269 14.08670577 26.07435167 13.94957653 22.9296875 13.00390625 C22.12426514 12.77445313 21.31884277 12.545 20.48901367 12.30859375 C19.62638916 12.06238281 18.76376465 11.81617188 17.875 11.5625 C3.74144198 7.80817402 -8.60588839 8.08932975 -22.83886719 11.49072266 C-25.28535279 12.06724423 -27.73911185 12.60313033 -30.1953125 13.13671875 C-50.80726155 17.65107825 -70.88585846 23.64738719 -91 30 C-92.06186523 30.33435059 -93.12373047 30.66870117 -94.21777344 31.01318359 C-106.24395767 34.82613658 -117.89057298 38.97928041 -129.3203125 44.3359375 C-134.74562056 46.845352 -139.0315124 48.76341679 -145 47 C-147.46732513 43.29901231 -147.26611146 41.73173223 -146.65625 37.4765625 C-145.28495733 32.30156518 -142.66891785 27.7338605 -138.12060547 24.77905273 C-112.71741796 10.29125375 -80.64864772 0.1779904 -51.625 -2.7109375 C-34.52826698 -4.59361346 -16.51955008 -6.39785932 0 0 Z " fill="#643C2F" transform="translate(280,200)"/>
<path d="M0 0 C0.80260254 0.43876465 1.60520508 0.8775293 2.43212891 1.32958984 C7.64151245 4.18455095 12.82763049 7.07856907 18 10 C14.19796823 11.26734392 12.81468322 10.47461255 9.0625 9.1875 C-28.64809483 -2.77557564 -66.52056794 13.18477159 -101.54980469 27.11499023 C-104 28 -104 28 -106 28 C-105.34 23.71 -104.68 19.42 -104 15 C-105.32 14.67 -106.64 14.34 -108 14 C-109.01435963 16.88702357 -109.9421268 19.69845014 -110.51953125 22.70703125 C-112.07567417 30.20663614 -112.07567417 30.20663614 -114.90234375 32.6328125 C-116.94970863 33.69166667 -118.74501782 34.5212352 -121 35 C-121.66 34.67 -122.32 34.34 -123 34 C-122.78794922 33.38479492 -122.57589844 32.76958984 -122.35742188 32.13574219 C-121.39863463 29.34261584 -120.44923236 26.54638722 -119.5 23.75 C-119.16613281 22.78191406 -118.83226562 21.81382812 -118.48828125 20.81640625 C-118.17246094 19.88183594 -117.85664063 18.94726562 -117.53125 17.984375 C-117.09135742 16.69611816 -117.09135742 16.69611816 -116.64257812 15.38183594 C-115.82635313 12.76751074 -115.82635313 12.76751074 -116 9 C-117.65 8.67 -119.3 8.34 -121 8 C-121.14695313 8.57363281 -121.29390625 9.14726562 -121.4453125 9.73828125 C-121.93681877 11.59979063 -122.44852149 13.45600682 -122.97265625 15.30859375 C-123.52726868 17.30140268 -124.07343432 19.29707233 -124.56982422 21.30517578 C-128.31295591 36.42957186 -128.31295591 36.42957186 -132.54296875 40.3671875 C-135.07955953 41.66293517 -137.18598286 42.57486072 -140 43 C-140.66 42.67 -141.32 42.34 -142 42 C-140.61700807 37.70408979 -139.21626631 33.41416236 -137.8125 29.125 C-137.42513672 27.92101562 -137.03777344 26.71703125 -136.63867188 25.4765625 C-130.71296941 7.45459137 -130.71296941 7.45459137 -125.375 2.625 C-120.69126788 0.36986972 -115.93496867 -1.3758331 -111 -3 C-109.85789063 -3.37640625 -108.71578125 -3.7528125 -107.5390625 -4.140625 C-98.57834507 -7 -98.57834507 -7 -94 -7 C-94.14168137 -5.56208484 -94.28851043 -4.1246763 -94.4375 -2.6875 C-94.51871094 -1.88699219 -94.59992188 -1.08648437 -94.68359375 -0.26171875 C-95 2 -95 2 -96 5 C-96.06665376 6.39439664 -96.08538199 7.79169875 -96.0625 9.1875 C-96.041875 10.445625 -96.02125 11.70375 -96 13 C-94.68 12.67 -93.36 12.34 -92 12 C-91.87995605 11.37432129 -91.75991211 10.74864258 -91.63623047 10.10400391 C-91.07666186 7.27141813 -90.47646932 4.44897179 -89.875 1.625 C-89.59269531 0.14773438 -89.59269531 0.14773438 -89.3046875 -1.359375 C-88.71635867 -4.04362527 -88.10805175 -6.48458687 -87 -9 C-84.24609375 -10.56640625 -84.24609375 -10.56640625 -81 -11 C-79.90042969 -11.26941406 -78.80085938 -11.53882813 -77.66796875 -11.81640625 C-76.51941406 -12.06261719 -75.37085938 -12.30882812 -74.1875 -12.5625 C-73.04667969 -12.81128906 -71.90585938 -13.06007813 -70.73046875 -13.31640625 C-44.4532397 -18.13160529 -23.11968718 -12.71068302 0 0 Z " fill="#643C2F" transform="translate(319,270)"/>
<path d="M0 0 C2.13745922 0.25146579 3.45925779 0.45925779 5 2 C4.79983553 6.5037005 3.68663701 9.8517608 1.8125 13.9375 C-2.14609918 22.99394639 -4.08251551 32.69623799 -6.35302734 42.28320312 C-7.20556685 45.86322562 -8.09941235 49.43179489 -9 53 C-10.99954746 53.04254356 -13.00041636 53.04080783 -15 53 C-15.33 52.67 -15.66 52.34 -16 52 C-15.83741638 45.22283003 -14.44880802 38.56899218 -12.875 32 C-12.66053223 31.10297363 -12.44606445 30.20594727 -12.22509766 29.28173828 C-10.65186169 22.99211581 -8.70978953 16.92236554 -6.375 10.875 C-6.08608887 10.12347656 -5.79717773 9.37195313 -5.49951172 8.59765625 C-4.09976028 5.13481734 -2.89620744 2.39702071 0 0 Z " fill="#222222" transform="translate(170,275)"/>
<path d="M0 0 C3.1875 -0.3125 3.1875 -0.3125 6 0 C7.0369501 2.68089538 7.05821741 3.83045456 6.109375 6.59375 C5.43648437 8.03234375 5.43648437 8.03234375 4.75 9.5 C-0.42080614 21.41720417 -1.72783749 33.18643853 -2.75048828 46.01391602 C-3 48 -3 48 -4 51 C-5.99954746 51.04254356 -8.00041636 51.04080783 -10 51 C-11.59001728 49.40998272 -11.20912067 47.83929729 -11.25 45.625 C-11.08066325 31.13730061 -8.78525692 11.9879835 0 0 Z " fill="#222222" transform="translate(152,283)"/>
<path d="M0 0 C1.65 0.33 3.3 0.66 5 1 C6.13802602 4.36061375 5.82514945 6.17871061 4.6875 9.5 C2.13076327 18.09673404 1.72853659 27.09929709 1 36 C-0.99954746 36.04254356 -3.00041636 36.04080783 -5 36 C-7.170827 33.829173 -6.24877213 28.65019385 -6.25317383 25.6472168 C-6.12934957 16.68134957 -5.04080522 7.61062749 0 0 Z " fill="#222222" transform="translate(135,292)"/>
</svg>
